<?xml version="1.0" standalone="yes"?>

<svg version="1.1" viewBox="0.0 0.0 1387.6351706036746 798.5459317585302" fill="none" stroke="none" stroke-linecap="square" stroke-miterlimit="10" xmlns="http://www.w3.org/2000/svg" xmlns:xlink="http://www.w3.org/1999/xlink"><clipPath id="p.0"><path d="m0 0l1387.6351 0l0 798.54596l-1387.6351 0l0 -798.54596z" clip-rule="nonzero"></path></clipPath><g clip-path="url(#p.0)"><path fill="#000000" fill-opacity="0.0" d="m0 0l1387.6351 0l0 798.54596l-1387.6351 0z" fill-rule="nonzero"></path><path fill="#cfe2f3" d="m57.64173 290.16705l0 0c0 -10.48349 8.498535 -18.982025 18.98201 -18.982025l205.53204 0c5.0343323 0 9.862488 1.9999084 13.422302 5.559723c3.5598145 3.5598145 5.5596924 8.387939 5.5596924 13.422302l0 75.92575c0 10.483459 -8.498535 18.981995 -18.981995 18.981995l-205.53204 0c-10.483475 0 -18.98201 -8.498535 -18.98201 -18.981995z" fill-rule="nonzero"></path><path stroke="#000000" stroke-width="4.0" stroke-linejoin="round" stroke-linecap="butt" d="m57.64173 290.16705l0 0c0 -10.48349 8.498535 -18.982025 18.98201 -18.982025l205.53204 0c5.0343323 0 9.862488 1.9999084 13.422302 5.559723c3.5598145 3.5598145 5.5596924 8.387939 5.5596924 13.422302l0 75.92575c0 10.483459 -8.498535 18.981995 -18.981995 18.981995l-205.53204 0c-10.483475 0 -18.98201 -8.498535 -18.98201 -18.981995z" fill-rule="nonzero"></path><path fill="#000000" d="m133.31946 327.94366q0 -3.6875 1.515625 -6.4375q1.53125 -2.75 4.171875 -4.21875q2.640625 -1.46875 5.90625 -1.46875q1.5 0 2.890625 0.21875q1.40625 0.21875 3.171875 0.578125l0.84375 0.171875l-0.296875 5.84375l-2.328125 0l-0.875 -3.984375q-0.328125 -0.4375 -1.328125 -0.6875q-1.0 -0.265625 -2.625 -0.265625q-2.0 0 -3.546875 1.140625q-1.53125 1.140625 -2.40625 3.375q-0.859375 2.21875 -0.859375 5.359375q0 2.90625 0.765625 5.359375q0.78125 2.4375 2.390625 3.9375q1.625 1.484375 4.046875 1.484375q2.515625 0 3.609375 -1.15625l1.359375 -3.296875l2.21875 0.296875l-0.6875 4.78125q-0.421875 0.03125 -0.8125 0.140625q-0.390625 0.09375 -1.015625 0.3125q-1.0625 0.375 -2.03125 0.578125q-0.96875 0.203125 -2.390625 0.203125q-3.71875 0 -6.34375 -1.453125q-2.625 -1.46875 -3.984375 -4.21875q-1.359375 -2.75 -1.359375 -6.59375zm23.5 9.9375l0 -21.796875l-2.5625 -0.3125l0 -1.484375l5.328125 -0.671875l0.03125 0l0.765625 0.53125l0 23.734375l2.65625 0.265625l0 1.703125l-8.75 0l0 -1.703125l2.53125 -0.265625zm10.828125 0l0 -13.09375l-2.265625 -0.640625l0 -1.84375l4.96875 -0.640625l0.078125 0l0.796875 0.609375l0 15.609375l2.5 0.265625l0 1.703125l-8.609375 0l0 -1.703125l2.53125 -0.265625zm-0.640625 -21.296875q0 -1.0625 0.609375 -1.796875q0.625 -0.734375 1.734375 -0.734375l0.015625 0q0.65625 0 1.140625 0.3125q0.484375 0.296875 0.734375 0.796875q0.265625 0.5 0.265625 1.0625q0 1.09375 -0.625 1.796875q-0.625 0.703125 -1.8125 0.703125l-0.015625 0q-0.90625 0 -1.484375 -0.609375q-0.5625 -0.609375 -0.5625 -1.53125zm8.921875 14.34375q0 -2.75 1.078125 -4.875q1.078125 -2.125 2.984375 -3.28125q1.90625 -1.171875 4.328125 -1.171875q3.0 0 4.640625 1.640625q1.640625 1.640625 1.75 4.734375l0 0.5625q0 1.640625 -0.1875 2.5l-10.828125 0q0.0625 2.296875 0.78125 3.8125q0.71875 1.515625 1.890625 2.234375q1.171875 0.71875 2.640625 0.71875q1.28125 0 2.625 -0.4375q1.359375 -0.453125 2.125 -1.03125l0.65625 1.5q-0.59375 0.609375 -1.640625 1.15625q-1.03125 0.546875 -2.3125 0.875q-1.265625 0.34375 -2.515625 0.34375q-2.625 0 -4.4375 -1.15625q-1.796875 -1.171875 -2.6875 -3.25q-0.890625 -2.09375 -0.890625 -4.875zm11.03125 -1.703125q0.0625 -0.5625 0.0625 -1.34375q-0.015625 -1.984375 -0.828125 -3.1875q-0.8125 -1.203125 -2.5625 -1.203125q-1.75 0 -2.78125 1.3125q-1.015625 1.296875 -1.15625 4.421875l7.265625 0zm8.656235 8.65625l0 -13.09375l-2.234375 -0.625l0 -1.875l4.625 -0.625l0.078125 0l0.734375 0.609375l0 1.265625l-0.015625 0.71875q0.71875 -0.640625 1.796875 -1.234375q1.09375 -0.59375 2.328125 -0.96875q1.25 -0.375 2.359375 -0.375q2.03125 0 3.140625 0.765625q1.109375 0.75 1.546875 2.328125q0.4375 1.578125 0.4375 4.28125l0 8.828125l2.25 0.265625l0 1.703125l-7.84375 0l0 -1.703125l2.0 -0.265625l0 -8.84375q0 -1.8125 -0.25 -2.84375q-0.234375 -1.046875 -0.90625 -1.5625q-0.671875 -0.53125 -1.984375 -0.53125q-1.125 0 -2.34375 0.484375q-1.21875 0.484375 -2.140625 1.171875l0 12.125l2.15625 0.265625l0 1.703125l-7.78125 0l0 -1.703125l2.046875 -0.265625zm18.890625 -13.5625l0 -1.484375q0.4375 -0.109375 1.0 -0.3125q0.578125 -0.203125 0.75 -0.3125q0.515625 -0.375 0.84375 -1.21875q0.234375 -0.53125 0.609375 -1.6875q0.390625 -1.171875 0.53125 -1.765625l2.03125 0l0.03125 4.546875l5.25 0l0 2.234375l-5.234375 0l0 9.453125q0 1.90625 0.109375 2.65625q0.109375 0.734375 0.4375 0.953125q0.34375 0.203125 1.234375 0.203125l0.015625 0q0.8125 0 1.828125 -0.203125q1.03125 -0.203125 1.59375 -0.421875l0.015625 0l0.53125 1.515625q-0.46875 0.390625 -1.40625 0.796875q-0.9375 0.390625 -2.015625 0.65625q-1.078125 0.265625 -1.984375 0.265625l-0.03125 0q-1.9375 0 -2.921875 -0.84375q-0.984375 -0.859375 -0.984375 -2.859375l0 -12.171875l-2.234375 0z" fill-rule="nonzero"></path><path fill="#cfe2f3" d="m1045.8989 50.41114l0 0c0 -10.483471 8.498535 -18.982006 18.982056 -18.982006l246.1305 0c5.0343018 0 9.862427 1.9998856 13.422241 5.5597c3.5598145 3.5598183 5.5596924 8.387966 5.5596924 13.422306l0 75.92575c0 10.483467 -8.498535 18.982002 -18.981934 18.982002l-246.1305 0l0 0c-10.4835205 0 -18.982056 -8.498535 -18.982056 -18.982002z" fill-rule="nonzero"></path><path stroke="#000000" stroke-width="4.0" stroke-linejoin="round" stroke-linecap="butt" d="m1045.8989 50.41114l0 0c0 -10.483471 8.498535 -18.982006 18.982056 -18.982006l246.1305 0c5.0343018 0 9.862427 1.9998856 13.422241 5.5597c3.5598145 3.5598183 5.5596924 8.387966 5.5596924 13.422306l0 75.92575c0 10.483467 -8.498535 18.982002 -18.981934 18.982002l-246.1305 0l0 0c-10.4835205 0 -18.982056 -8.498535 -18.982056 -18.982002z" fill-rule="nonzero"></path><path fill="#000000" d="m1139.3055 93.21902l2.171875 0l0.625 4.0q0.53125 0.5625 1.71875 0.96875q1.1875 0.390625 2.578125 0.390625q2.328125 0 3.5 -1.03125q1.1875 -1.046875 1.1875 -2.890625q0 -1.203125 -0.65625 -2.0625q-0.640625 -0.875 -1.75 -1.53125q-1.109375 -0.65625 -3.046875 -1.53125q-1.6875 -0.765625 -3.03125 -1.65625q-1.34375 -0.890625 -2.3125 -2.3125q-0.96875 -1.421875 -0.96875 -3.359375q0 -1.78125 0.953125 -3.171875q0.953125 -1.40625 2.71875 -2.1875q1.765625 -0.796875 4.109375 -0.796875q1.4375 0 2.65625 0.25q1.21875 0.234375 2.53125 0.609375q0.6875 0.203125 1.109375 0.28125l-0.203125 5.359375l-2.09375 0l-0.71875 -3.796875q-0.296875 -0.328125 -1.25 -0.59375q-0.953125 -0.28125 -2.0625 -0.28125q-4.21875 0 -4.21875 3.40625q0 1.1875 0.640625 2.03125q0.640625 0.84375 1.703125 1.5q1.0625 0.640625 3.140625 1.65625q2.0625 1.015625 3.375 1.859375q1.3125 0.84375 2.25 2.15625q0.9375 1.296875 0.9375 3.078125q0 1.71875 -0.96875 3.3125q-0.953125 1.578125 -2.890625 2.578125q-1.921875 1.0 -4.671875 1.0q-1.6875 0 -3.078125 -0.3125q-1.390625 -0.296875 -2.890625 -0.78125q-1.03125 -0.328125 -1.359375 -0.359375l0.265625 -5.78125zm18.21875 -2.046875q0 -2.75 1.078125 -4.875q1.078125 -2.125 2.984375 -3.28125q1.90625 -1.171875 4.328125 -1.171875q3.0 0 4.640625 1.640625q1.640625 1.640625 1.75 4.734375l0 0.5625q0 1.640625 -0.1875 2.5l-10.828125 0q0.0625 2.296875 0.78125 3.8125q0.71875 1.515625 1.890625 2.234375q1.171875 0.71875 2.640625 0.71875q1.28125 0 2.625 -0.4375q1.359375 -0.453125 2.125 -1.03125l0.65625 1.5q-0.59375 0.609375 -1.640625 1.15625q-1.03125 0.546875 -2.3125 0.875q-1.265625 0.34375 -2.515625 0.34375q-2.625 0 -4.4375 -1.15625q-1.796875 -1.171875 -2.6875 -3.25q-0.890625 -2.09375 -0.890625 -4.875zm11.03125 -1.703125q0.0625 -0.5625 0.0625 -1.34375q-0.015625 -1.984375 -0.828125 -3.1875q-0.8125 -1.203125 -2.5625 -1.203125q-1.75 0 -2.78125 1.3125q-1.015625 1.296875 -1.15625 4.421875l7.265625 0zm8.921875 8.6875l0 -13.125l-2.21875 -0.625l0 -1.875l4.46875 -0.625l0.078125 0l0.75 0.609375l0 0.984375l-0.03125 2.03125l0.03125 0q0.28125 -0.515625 1.078125 -1.375q0.8125 -0.875 2.078125 -1.59375q1.28125 -0.71875 2.78125 -0.71875q0.609375 0 1.03125 0.171875l0 3.84375q-0.296875 -0.171875 -0.796875 -0.28125q-0.484375 -0.125 -1.046875 -0.125q-1.578125 0 -2.734375 0.390625q-1.140625 0.375 -1.90625 0.953125l0 11.34375l4.109375 0.28125l0 1.671875l-10.125 0l0 -1.6875l2.453125 -0.25zm10.78125 -14.171875l0 -1.65625l7.8125 0l0 1.65625l-2.34375 0.40625l3.0625 8.828125l1.375 4.203125l1.15625 -4.046875l2.953125 -8.984375l-2.15625 -0.40625l0 -1.65625l6.609375 0l0 1.65625l-1.625 0.421875l-6.03125 15.9375l-2.9375 0l-6.40625 -15.953125l-1.46875 -0.40625zm19.640625 7.1875q0 -2.75 1.078125 -4.875q1.078125 -2.125 2.984375 -3.28125q1.90625 -1.171875 4.328125 -1.171875q3.0 0 4.640625 1.640625q1.640625 1.640625 1.75 4.734375l0 0.5625q0 1.640625 -0.1875 2.5l-10.828125 0q0.0625 2.296875 0.78125 3.8125q0.71875 1.515625 1.890625 2.234375q1.171875 0.71875 2.640625 0.71875q1.28125 0 2.625 -0.4375q1.359375 -0.453125 2.125 -1.03125l0.65625 1.5q-0.59375 0.609375 -1.640625 1.15625q-1.03125 0.546875 -2.3125 0.875q-1.265625 0.34375 -2.515625 0.34375q-2.625 0 -4.4375 -1.15625q-1.796875 -1.171875 -2.6875 -3.25q-0.890625 -2.09375 -0.890625 -4.875zm11.03125 -1.703125q0.0625 -0.5625 0.0625 -1.34375q-0.015625 -1.984375 -0.828125 -3.1875q-0.8125 -1.203125 -2.5625 -1.203125q-1.75 0 -2.78125 1.3125q-1.015625 1.296875 -1.15625 4.421875l7.265625 0zm8.921875 8.6875l0 -13.125l-2.21875 -0.625l0 -1.875l4.46875 -0.625l0.078125 0l0.75 0.609375l0 0.984375l-0.03125 2.03125l0.03125 0q0.28125 -0.515625 1.078125 -1.375q0.8125 -0.875 2.078125 -1.59375q1.28125 -0.71875 2.78125 -0.71875q0.609375 0 1.03125 0.171875l0 3.84375q-0.296875 -0.171875 -0.796875 -0.28125q-0.484375 -0.125 -1.046875 -0.125q-1.578125 0 -2.734375 0.390625q-1.140625 0.375 -1.90625 0.953125l0 11.34375l4.109375 0.28125l0 1.671875l-10.125 0l0 -1.6875l2.453125 -0.25z" fill-rule="nonzero"></path><path fill="#d9ead3" d="m1045.8989 625.06696l0 0c0 -78.45056 63.5968 -142.04727 142.04724 -142.04727l0 0c37.67334 0 73.80359 14.965637 100.44263 41.604706c26.639038 26.638977 41.604614 62.769287 41.604614 100.442566l0 0c0 78.4505 -63.59668 142.04724 -142.04724 142.04724l0 0c-78.45044 0 -142.04724 -63.59674 -142.04724 -142.04724z" fill-rule="nonzero"></path><path stroke="#000000" stroke-width="4.0" stroke-linejoin="round" stroke-linecap="butt" d="m1045.8989 625.06696l0 0c0 -78.45056 63.5968 -142.04727 142.04724 -142.04727l0 0c37.67334 0 73.80359 14.965637 100.44263 41.604706c26.639038 26.638977 41.604614 62.769287 41.604614 100.442566l0 0c0 78.4505 -63.59668 142.04724 -142.04724 142.04724l0 0c-78.45044 0 -142.04724 -63.59674 -142.04724 -142.04724z" fill-rule="nonzero"></path><path fill="#000000" d="m1129.7274 615.7088l0 -19.578125l-2.578125 -0.390625l0 -1.734375l4.25 0q1.0625 0 2.71875 -0.125q1.28125 -0.109375 2.203125 -0.109375q4.390625 0 6.359375 1.375q1.984375 1.359375 1.984375 4.015625q0 1.484375 -0.578125 2.71875q-0.5625 1.21875 -1.640625 2.046875q-1.078125 0.8125 -2.5625 1.109375q1.953125 -0.046875 3.40625 0.640625q1.46875 0.6875 2.265625 1.984375q0.796875 1.296875 0.796875 3.03125q0 3.21875 -2.28125 5.25q-2.265625 2.03125 -7.515625 2.03125q-0.578125 0 -1.21875 -0.03125q-0.640625 -0.03125 -0.90625 -0.046875q-1.890625 -0.109375 -3.0 -0.109375l-4.328125 0l0 -1.703125l2.625 -0.375zm3.65625 -11.375q0.796875 0.0625 3.203125 0.0625q4.421875 0 4.421875 -4.578125q0 -1.46875 -0.46875 -2.390625q-0.46875 -0.9375 -1.53125 -1.390625q-1.0625 -0.46875 -2.875 -0.46875q-1.125 0 -1.875 0.09375q-0.75 0.078125 -0.875 0.09375l0 8.578125zm-0.015625 11.53125q0.375 0.171875 1.1875 0.234375q0.8125 0.046875 1.90625 0.046875q3.125 0 4.515625 -1.265625q1.40625 -1.265625 1.40625 -3.671875q0 -1.734375 -0.546875 -2.796875q-0.546875 -1.0625 -1.734375 -1.546875q-1.171875 -0.5 -3.09375 -0.5l-1.515625 0q-1.640625 0 -2.125 0.03125l0 9.46875zm17.796875 -0.046875l0 -21.796875l-2.5625 -0.3125l0 -1.484375l5.328125 -0.671875l0.03125 0l0.765625 0.53125l0 23.734375l2.65625 0.265625l0 1.703125l-8.75 0l0 -1.703125l2.53125 -0.265625zm16.78125 -16.28125q2.71875 0 4.53125 1.203125q1.8125 1.203125 2.6875 3.3125q0.875 2.09375 0.875 4.796875q0 2.890625 -1.203125 5.0q-1.1875 2.109375 -3.140625 3.203125q-1.9375 1.09375 -4.140625 1.09375q-2.71875 0 -4.53125 -1.203125q-1.796875 -1.203125 -2.671875 -3.296875q-0.875 -2.109375 -0.875 -4.8125q0 -2.859375 1.1875 -4.96875q1.203125 -2.109375 3.140625 -3.21875q1.953125 -1.109375 4.140625 -1.109375zm4.140625 9.59375q0 -3.515625 -1.046875 -5.578125q-1.03125 -2.078125 -3.28125 -2.078125q-2.15625 0 -3.25 1.78125q-1.09375 1.765625 -1.09375 5.296875q0 3.515625 1.046875 5.59375q1.0625 2.0625 3.296875 2.0625q4.328125 0 4.328125 -7.078125zm15.390625 -9.59375q2.25 0 4.8125 0.96875l-0.15625 4.8125l-2.171875 0l-0.71875 -2.921875q-0.21875 -0.515625 -0.875 -0.765625q-0.640625 -0.25 -1.546875 -0.25q-1.375 0 -2.390625 0.765625q-1.015625 0.75 -1.578125 2.265625q-0.5625 1.5 -0.5625 3.71875q0 2.578125 0.671875 4.28125q0.671875 1.703125 1.828125 2.515625q1.15625 0.8125 2.609375 0.8125q1.359375 0 2.5 -0.390625q1.15625 -0.40625 1.96875 -0.984375l0.671875 1.4375q-0.5625 0.578125 -1.5 1.125q-0.9375 0.53125 -2.109375 0.875q-1.15625 0.34375 -2.328125 0.34375q-2.640625 0 -4.46875 -1.171875q-1.828125 -1.171875 -2.75 -3.203125q-0.90625 -2.046875 -0.90625 -4.640625q0 -2.671875 1.03125 -4.84375q1.03125 -2.1875 3.0625 -3.46875q2.03125 -1.28125 4.90625 -1.28125zm9.40625 16.28125l0 -21.796875l-2.4375 -0.3125l0 -1.484375l5.203125 -0.671875l0.046875 0l0.75 0.53125l0 15.46875l-0.0625 1.78125l6.96875 -7.265625l-2.515625 -0.453125l0 -1.59375l7.953125 0l0 1.59375l-2.453125 0.53125l-4.546875 4.4375l6.125 9.234375l1.875 0.265625l0 1.703125l-7.828125 0l0 -1.6875l1.875 -0.296875l-4.40625 -7.140625l-3.0625 3.03125l0.078125 1.65625l0 2.46875l2.25 0.28125l0 1.6875l-7.859375 0l0 -1.703125l2.046875 -0.265625zm17.484375 -6.953125q0 -2.75 1.078125 -4.875q1.078125 -2.125 2.984375 -3.28125q1.90625 -1.171875 4.328125 -1.171875q3.0 0 4.640625 1.640625q1.640625 1.640625 1.75 4.734375l0 0.5625q0 1.640625 -0.1875 2.5l-10.828125 0q0.0625 2.296875 0.78125 3.8125q0.71875 1.515625 1.890625 2.234375q1.171875 0.71875 2.640625 0.71875q1.28125 0 2.625 -0.4375q1.359375 -0.453125 2.125 -1.03125l0.65625 1.5q-0.59375 0.609375 -1.640625 1.15625q-1.03125 0.546875 -2.3125 0.875q-1.265625 0.34375 -2.515625 0.34375q-2.625 0 -4.4375 -1.15625q-1.796875 -1.171875 -2.6875 -3.25q-0.890625 -2.09375 -0.890625 -4.875zm11.03125 -1.703125q0.0625 -0.5625 0.0625 -1.34375q-0.015625 -1.984375 -0.828125 -3.1875q-0.8125 -1.203125 -2.5625 -1.203125q-1.75 0 -2.78125 1.3125q-1.015625 1.296875 -1.15625 4.421875l7.265625 0zm6.34375 2.15625q0 -2.734375 1.109375 -4.953125q1.109375 -2.234375 3.203125 -3.53125q2.09375 -1.296875 4.90625 -1.296875q1.375 0 2.828125 0.296875l0 -5.828125l-3.140625 -0.3125l0 -1.515625l5.828125 -0.625l0.09375 0l0.765625 0.5625l0 23.859375l1.84375 0l0 1.625q-1.015625 0.25 -1.8125 0.390625q-0.78125 0.15625 -1.625 0.15625q-0.609375 0 -0.96875 -0.125q-0.34375 -0.109375 -0.53125 -0.453125q-0.171875 -0.359375 -0.171875 -1.03125l0 -0.828125q-0.953125 1.046875 -2.328125 1.75q-1.359375 0.6875 -3.03125 0.6875q-1.921875 0 -3.5 -0.96875q-1.578125 -0.984375 -2.53125 -2.96875q-0.9375 -2.0 -0.9375 -4.890625zm12.046875 -6.984375q-0.234375 -0.390625 -1.125 -0.671875q-0.890625 -0.28125 -1.921875 -0.28125q-2.34375 0 -3.75 1.859375q-1.40625 1.859375 -1.40625 5.828125q0 2.265625 0.59375 3.765625q0.609375 1.484375 1.625 2.203125q1.03125 0.703125 2.34375 0.703125q1.140625 0 2.09375 -0.5q0.953125 -0.5 1.546875 -1.15625l0 -11.75z" fill-rule="nonzero"></path><path fill="#000000" d="m1120.0243 653.74005l0 -19.625l-2.46875 -0.40625l0 -1.703125l4.296875 0q0.6875 0 1.4375 -0.046875q0.75 -0.046875 0.96875 -0.0625q1.59375 -0.125 2.515625 -0.125q3.15625 0 5.0625 0.6875q1.90625 0.6875 2.75 2.0625q0.859375 1.375 0.859375 3.53125q0 1.453125 -0.5625 2.828125q-0.546875 1.359375 -1.609375 2.390625q-1.046875 1.015625 -2.5 1.46875q0.671875 0.390625 1.328125 1.21875q0.65625 0.8125 1.203125 1.75q0.546875 0.921875 1.34375 2.390625q0.9375 1.765625 1.5 2.640625q0.578125 0.859375 1.078125 0.984375l1.21875 0.375l0 1.6875l-4.625 0q-0.53125 0 -1.171875 -1.109375q-0.625 -1.109375 -1.6875 -3.453125q-1.109375 -2.484375 -1.90625 -3.921875q-0.796875 -1.4375 -1.59375 -1.921875q-3.109375 0 -3.78125 -0.046875l0 8.40625l3.078125 0.34375l0 1.703125l-9.359375 0l0 -1.703125l2.625 -0.34375zm7.1875 -10.203125q2.015625 0 3.125 -1.3125q1.125 -1.3125 1.125 -3.921875q0 -2.234375 -1.15625 -3.46875q-1.140625 -1.234375 -3.9375 -1.234375q-1.1875 0 -2.203125 0.140625l-0.484375 0.046875l0 9.71875q0.5 0.046875 1.578125 0.046875l1.953125 -0.015625zm12.515625 3.328125q0 -2.75 1.078125 -4.875q1.078125 -2.125 2.984375 -3.28125q1.90625 -1.171875 4.328125 -1.171875q3.0 0 4.640625 1.640625q1.640625 1.640625 1.75 4.734375l0 0.5625q0 1.640625 -0.1875 2.5l-10.828125 0q0.0625 2.296875 0.78125 3.8125q0.71875 1.515625 1.890625 2.234375q1.171875 0.71875 2.640625 0.71875q1.28125 0 2.625 -0.4375q1.359375 -0.453125 2.125 -1.03125l0.65625 1.5q-0.59375 0.609375 -1.640625 1.15625q-1.03125 0.546875 -2.3125 0.875q-1.265625 0.34375 -2.515625 0.34375q-2.625 0 -4.4375 -1.15625q-1.796875 -1.171875 -2.6875 -3.25q-0.890625 -2.09375 -0.890625 -4.875zm11.03125 -1.703125q0.0625 -0.5625 0.0625 -1.34375q-0.015625 -1.984375 -0.828125 -3.1875q-0.8125 -1.203125 -2.5625 -1.203125q-1.75 0 -2.78125 1.3125q-1.015625 1.296875 -1.15625 4.421875l7.265625 0zm9.078125 5.546875l0.625 2.375q0.1875 0.328125 0.71875 0.625q0.546875 0.296875 1.28125 0.484375q0.734375 0.1875 1.5 0.1875q1.765625 0 2.515625 -0.65625q0.75 -0.671875 0.75 -1.828125q0 -0.8125 -0.515625 -1.421875q-0.5 -0.625 -1.5 -1.171875q-1.0 -0.546875 -2.71875 -1.234375q-2.484375 -0.96875 -3.625 -2.28125q-1.140625 -1.328125 -1.140625 -3.421875q0 -1.40625 0.84375 -2.46875q0.859375 -1.078125 2.34375 -1.671875q1.484375 -0.59375 3.34375 -0.59375q1.4375 0 2.53125 0.234375q1.09375 0.21875 2.203125 0.578125l0.5625 0.171875l0 3.953125l-2.0 0l-0.671875 -2.1875q-0.1875 -0.40625 -1.015625 -0.703125q-0.8125 -0.296875 -1.828125 -0.296875q-1.4375 0 -2.21875 0.609375q-0.78125 0.609375 -0.78125 1.59375q0 0.875 0.453125 1.46875q0.46875 0.59375 1.15625 0.96875q0.6875 0.375 1.921875 0.890625l0.609375 0.265625q1.78125 0.765625 2.890625 1.4375q1.109375 0.671875 1.84375 1.71875q0.734375 1.046875 0.734375 2.5625q0 1.5625 -0.828125 2.75q-0.8125 1.1875 -2.375 1.84375q-1.546875 0.65625 -3.671875 0.65625q-1.59375 0 -3.34375 -0.4375q-1.75 -0.4375 -2.796875 -0.90625l0 -4.09375l2.203125 0zm21.9375 -13.171875q2.71875 0 4.53125 1.203125q1.8125 1.203125 2.6875 3.3125q0.875 2.09375 0.875 4.796875q0 2.890625 -1.203125 5.0q-1.1875 2.109375 -3.140625 3.203125q-1.9375 1.09375 -4.140625 1.09375q-2.71875 0 -4.53125 -1.203125q-1.796875 -1.203125 -2.671875 -3.296875q-0.875 -2.109375 -0.875 -4.8125q0 -2.859375 1.1875 -4.96875q1.203125 -2.109375 3.140625 -3.21875q1.953125 -1.109375 4.140625 -1.109375zm4.140625 9.59375q0 -3.515625 -1.046875 -5.578125q-1.03125 -2.078125 -3.28125 -2.078125q-2.15625 0 -3.25 1.78125q-1.09375 1.765625 -1.09375 5.296875q0 3.515625 1.046875 5.59375q1.0625 2.0625 3.296875 2.0625q4.328125 0 4.328125 -7.078125zm19.375 6.53125q-1.0 0.96875 -2.53125 1.734375q-1.53125 0.75 -3.09375 0.75q-1.953125 0 -3.171875 -0.6875q-1.21875 -0.703125 -1.796875 -2.21875q-0.578125 -1.515625 -0.578125 -4.0l0 -9.0625l-1.734375 -0.578125l0 -1.515625l4.625 -0.46875l0.015625 0l0.65625 0.421875l0 11.03125q0 1.78125 0.265625 2.78125q0.265625 1.0 0.9375 1.46875q0.671875 0.453125 1.9375 0.453125q1.21875 0 2.265625 -0.46875q1.046875 -0.46875 1.8125 -1.078125l0 -12.03125l-2.234375 -0.609375l0 -1.515625l4.9375 -0.453125l0.03125 0l0.828125 0.421875l0 15.984375l1.875 0l0 1.5625q-0.90625 0.265625 -1.578125 0.40625q-0.65625 0.15625 -1.515625 0.15625q-1.0 0 -1.484375 -0.375q-0.46875 -0.390625 -0.46875 -1.296875l0 -0.8125zm10.140625 0.1875l0 -13.125l-2.21875 -0.625l0 -1.875l4.46875 -0.625l0.078125 0l0.75 0.609375l0 0.984375l-0.03125 2.03125l0.03125 0q0.28125 -0.515625 1.078125 -1.375q0.8125 -0.875 2.078125 -1.59375q1.28125 -0.71875 2.78125 -0.71875q0.609375 0 1.03125 0.171875l0 3.84375q-0.296875 -0.171875 -0.796875 -0.28125q-0.484375 -0.125 -1.046875 -0.125q-1.578125 0 -2.734375 0.390625q-1.140625 0.375 -1.90625 0.953125l0 11.34375l4.109375 0.28125l0 1.671875l-10.125 0l0 -1.6875l2.453125 -0.25zm21.03125 -16.3125q2.25 0 4.8125 0.96875l-0.15625 4.8125l-2.171875 0l-0.71875 -2.921875q-0.21875 -0.515625 -0.875 -0.765625q-0.640625 -0.25 -1.546875 -0.25q-1.375 0 -2.390625 0.765625q-1.015625 0.75 -1.578125 2.265625q-0.5625 1.5 -0.5625 3.71875q0 2.578125 0.671875 4.28125q0.671875 1.703125 1.828125 2.515625q1.15625 0.8125 2.609375 0.8125q1.359375 0 2.5 -0.390625q1.15625 -0.40625 1.96875 -0.984375l0.671875 1.4375q-0.5625 0.578125 -1.5 1.125q-0.9375 0.53125 -2.109375 0.875q-1.15625 0.34375 -2.328125 0.34375q-2.640625 0 -4.46875 -1.171875q-1.828125 -1.171875 -2.75 -3.203125q-0.90625 -2.046875 -0.90625 -4.640625q0 -2.671875 1.03125 -4.84375q1.03125 -2.1875 3.0625 -3.46875q2.03125 -1.28125 4.90625 -1.28125zm7.484375 9.328125q0 -2.75 1.078125 -4.875q1.078125 -2.125 2.984375 -3.28125q1.90625 -1.171875 4.328125 -1.171875q3.0 0 4.640625 1.640625q1.640625 1.640625 1.75 4.734375l0 0.5625q0 1.640625 -0.1875 2.5l-10.828125 0q0.0625 2.296875 0.78125 3.8125q0.71875 1.515625 1.890625 2.234375q1.171875 0.71875 2.640625 0.71875q1.28125 0 2.625 -0.4375q1.359375 -0.453125 2.125 -1.03125l0.65625 1.5q-0.59375 0.609375 -1.640625 1.15625q-1.03125 0.546875 -2.3125 0.875q-1.265625 0.34375 -2.515625 0.34375q-2.625 0 -4.4375 -1.15625q-1.796875 -1.171875 -2.6875 -3.25q-0.890625 -2.09375 -0.890625 -4.875zm11.03125 -1.703125q0.0625 -0.5625 0.0625 -1.34375q-0.015625 -1.984375 -0.828125 -3.1875q-0.8125 -1.203125 -2.5625 -1.203125q-1.75 0 -2.78125 1.3125q-1.015625 1.296875 -1.15625 4.421875l7.265625 0z" fill-rule="nonzero"></path><path fill="#000000" fill-opacity="0.0" d="m1187.9462 483.01968c0 -84.4252 0.01574707 -126.63779 0.03149414 -168.8504c0.01574707 -42.212585 0.03149414 -84.425186 0.03149414 -168.85039" fill-rule="nonzero"></path><path stroke="#93c47d" stroke-width="4.0" stroke-linejoin="round" stroke-linecap="butt" d="m1187.9474 459.01968l0.0014648438 -32.0636c0.0018310547 -16.489319 0.004272461 -30.999878 0.0072021484 -44.191315c0.005859375 -26.382874 0.013793945 -47.489166 0.021606445 -68.59549c0.00793457 -21.106293 0.01574707 -42.212585 0.021728516 -68.59546c0.0029296875 -13.191437 0.0053710938 -27.702026 0.007080078 -44.191315l0.0015869141 -32.063614" fill-rule="evenodd"></path><path fill="#93c47d" stroke="#93c47d" stroke-width="4.0" stroke-linecap="butt" d="m1181.3405 459.01938l6.606079 18.15271l6.607788 -18.15207z" fill-rule="evenodd"></path><path fill="#93c47d" stroke="#93c47d" stroke-width="4.0" stroke-linecap="butt" d="m1194.615 169.31921l-6.606079 -18.15271l-6.607788 18.15207z" fill-rule="evenodd"></path><path fill="#000000" fill-opacity="0.0" d="m750.08795 352.12204c73.95276 0 110.92914 68.23624 147.90546 136.47244c36.97638 68.236206 73.95276 136.47247 147.90552 136.47247" fill-rule="nonzero"></path><path stroke="#e06666" stroke-width="4.0" stroke-linejoin="round" stroke-linecap="butt" stroke-dasharray="16.0,12.0" d="m750.08795 352.12204c73.95276 0 110.92914 68.23624 147.90546 136.47244c18.48822 34.118103 36.97638 68.236206 60.08667 93.82483c11.555115 12.7942505 24.265747 23.456177 38.709595 30.919495c7.221985 3.7316895 14.877258 6.6637573 23.038086 8.662842c0.51000977 0.124938965 1.0220337 0.24621582 1.5360718 0.36383057l0.6710205 0.1508789" fill-rule="evenodd"></path><path fill="#e06666" stroke="#e06666" stroke-width="4.0" stroke-linecap="butt" d="m1021.3327 629.0859l18.75177 -4.640381l-17.347473 -8.498657z" fill-rule="evenodd"></path><path fill="#000000" fill-opacity="0.0" d="m750.08795 304.12204c73.95276 0 110.92914 -53.936996 147.90546 -107.87401c36.97638 -53.93701 73.95276 -107.874016 147.90552 -107.874016" fill-rule="nonzero"></path><path stroke="#6d9eeb" stroke-width="4.0" stroke-linejoin="round" stroke-linecap="butt" d="m750.08795 304.12204c73.95276 0 110.92914 -53.936996 147.90546 -107.87401c18.48822 -26.968506 36.97638 -53.93701 60.08667 -74.16338c11.555115 -10.11319 24.265747 -18.540848 38.709595 -24.440208c7.221985 -2.9496841 14.877258 -5.267288 23.038086 -6.847473c0.51000977 -0.09876251 1.0220337 -0.19464874 1.5360718 -0.28761292l0.6206665 -0.110313416" fill-rule="evenodd"></path><path fill="#6d9eeb" stroke="#6d9eeb" stroke-width="4.0" stroke-linecap="butt" d="m1022.542 96.982414l17.530151 -8.114998l-18.64508 -5.0517426z" fill-rule="evenodd"></path><path fill="#000000" fill-opacity="0.0" d="m301.1378 304.1299l448.94492 0" fill-rule="nonzero"></path><path stroke="#6d9eeb" stroke-width="4.0" stroke-linejoin="round" stroke-linecap="butt" d="m325.1378 304.1299l424.94492 0" fill-rule="evenodd"></path><path fill="#6d9eeb" stroke="#6d9eeb" stroke-width="4.0" stroke-linecap="butt" d="m325.1378 297.52298l-18.152374 6.6069336l18.152374 6.6069336z" fill-rule="evenodd"></path><path fill="#000000" fill-opacity="0.0" d="m750.07745 352.1299l-448.94492 0" fill-rule="nonzero"></path><path stroke="#e06666" stroke-width="4.0" stroke-linejoin="round" stroke-linecap="butt" stroke-dasharray="16.0,12.0" d="m750.07745 352.1299l-424.94492 0" fill-rule="evenodd"></path><path fill="#e06666" stroke="#e06666" stroke-width="4.0" stroke-linecap="butt" d="m325.13254 345.52298l-18.152374 6.6069336l18.152374 6.6069336z" fill-rule="evenodd"></path><path fill="#f4cccc" fill-opacity="0.8" d="m440.91208 281.21176l0 0c0 -12.956482 10.503296 -23.459778 23.459778 -23.459778l262.24576 0c6.221924 0 12.189026 2.4716187 16.588623 6.8711853c4.399536 4.3995667 6.871216 10.366669 6.871216 16.588593l0 93.836334c0 12.956482 -10.503357 23.459778 -23.459839 23.459778l-262.24576 0c-12.956482 0 -23.459778 -10.503296 -23.459778 -23.459778z" fill-rule="nonzero"></path><path stroke="#000000" stroke-width="4.0" stroke-linejoin="round" stroke-linecap="butt" d="m440.91208 281.21176l0 0c0 -12.956482 10.503296 -23.459778 23.459778 -23.459778l262.24576 0c6.221924 0 12.189026 2.4716187 16.588623 6.8711853c4.399536 4.3995667 6.871216 10.366669 6.871216 16.588593l0 93.836334c0 12.956482 -10.503357 23.459778 -23.459839 23.459778l-262.24576 0c-12.956482 0 -23.459778 -10.503296 -23.459778 -23.459778z" fill-rule="nonzero"></path><path fill="#000000" d="m534.8385 337.7718l0 -19.578125l-2.625 -0.390625l0 -1.734375l17.0625 0l0.328125 5.46875l-2.265625 0l-1.03125 -3.46875l-7.796875 -0.21875l0 9.109375l5.4375 -0.0625l0.625 -2.625l1.921875 0l0 7.453125l-1.921875 0l-0.625 -2.671875l-5.4375 -0.140625l0 8.859375l4.75 0.375l0 1.703125l-11.0 0l0 -1.703125l2.578125 -0.375zm19.46875 0.109375l0 -13.09375l-2.265625 -0.640625l0 -1.84375l4.96875 -0.640625l0.078125 0l0.796875 0.609375l0 15.609375l2.5 0.265625l0 1.703125l-8.609375 0l0 -1.703125l2.53125 -0.265625zm-0.640625 -21.296875q0 -1.0625 0.609375 -1.796875q0.625 -0.734375 1.734375 -0.734375l0.015625 0q0.65625 0 1.140625 0.3125q0.484375 0.296875 0.734375 0.796875q0.265625 0.5 0.265625 1.0625q0 1.09375 -0.625 1.796875q-0.625 0.703125 -1.8125 0.703125l-0.015625 0q-0.90625 0 -1.484375 -0.609375q-0.5625 -0.609375 -0.5625 -1.53125zm11.5 21.328125l0 -13.125l-2.21875 -0.625l0 -1.875l4.46875 -0.625l0.078125 0l0.75 0.609375l0 0.984375l-0.03125 2.03125l0.03125 0q0.28125 -0.515625 1.078125 -1.375q0.8125 -0.875 2.078125 -1.59375q1.28125 -0.71875 2.78125 -0.71875q0.609375 0 1.03125 0.171875l0 3.84375q-0.296875 -0.171875 -0.796875 -0.28125q-0.484375 -0.125 -1.046875 -0.125q-1.578125 0 -2.734375 0.390625q-1.140625 0.375 -1.90625 0.953125l0 11.34375l4.109375 0.28125l0 1.671875l-10.125 0l0 -1.6875l2.453125 -0.25zm12.15625 -6.984375q0 -2.75 1.078125 -4.875q1.078125 -2.125 2.984375 -3.28125q1.90625 -1.171875 4.328125 -1.171875q3.0 0 4.640625 1.640625q1.640625 1.640625 1.75 4.734375l0 0.5625q0 1.640625 -0.1875 2.5l-10.828125 0q0.0625 2.296875 0.78125 3.8125q0.71875 1.515625 1.890625 2.234375q1.171875 0.71875 2.640625 0.71875q1.28125 0 2.625 -0.4375q1.359375 -0.453125 2.125 -1.03125l0.65625 1.5q-0.59375 0.609375 -1.640625 1.15625q-1.03125 0.546875 -2.3125 0.875q-1.265625 0.34375 -2.515625 0.34375q-2.625 0 -4.4375 -1.15625q-1.796875 -1.171875 -2.6875 -3.25q-0.890625 -2.09375 -0.890625 -4.875zm11.03125 -1.703125q0.0625 -0.5625 0.0625 -1.34375q-0.015625 -1.984375 -0.828125 -3.1875q-0.8125 -1.203125 -2.5625 -1.203125q-1.75 0 -2.78125 1.3125q-1.015625 1.296875 -1.15625 4.421875l7.265625 0zm4.796875 -5.484375l0 -1.65625l7.828125 0l0 1.65625l-2.46875 0.40625l2.578125 9.203125l0.890625 3.984375l0.84375 -3.984375l3.140625 -11.265625l3.328125 0l3.21875 11.25l0.859375 3.96875l0.9375 -3.921875l2.5 -9.21875l-2.421875 -0.421875l0 -1.65625l6.765625 0l0 1.65625l-1.78125 0.40625l-4.890625 15.953125l-3.265625 0l-3.375 -11.328125l-0.796875 -3.765625l-0.609375 3.765625l-3.25 11.328125l-3.1875 0l-5.125 -15.953125l-1.71875 -0.40625zm39.484375 4.5q0 -1.46875 -0.3125 -2.3125q-0.296875 -0.84375 -1.046875 -1.234375q-0.75 -0.390625 -2.125 -0.390625q-2.640625 0 -5.5625 1.484375l-0.015625 0l-0.78125 -1.625q0.421875 -0.375 1.609375 -0.96875q1.203125 -0.59375 2.71875 -1.03125q1.53125 -0.453125 2.90625 -0.453125q2.28125 0 3.578125 0.625q1.3125 0.609375 1.890625 1.96875q0.578125 1.359375 0.578125 3.671875l0 10.15625l1.90625 0l0 1.53125q-2.28125 0.546875 -3.4375 0.546875q-0.65625 0 -1.0 -0.109375q-0.34375 -0.109375 -0.515625 -0.4375q-0.15625 -0.34375 -0.15625 -1.046875l0 -0.75q-0.84375 0.828125 -2.21875 1.59375q-1.375 0.75 -3.078125 0.75q-1.5 0 -2.734375 -0.546875q-1.21875 -0.546875 -1.953125 -1.6875q-0.71875 -1.140625 -0.71875 -2.84375q0 -2.078125 1.4375 -3.421875q1.453125 -1.34375 3.796875 -1.96875q2.359375 -0.640625 5.234375 -0.6875l0 -0.8125zm0 2.578125q-2.296875 0 -3.78125 0.53125q-1.46875 0.515625 -2.140625 1.375q-0.65625 0.859375 -0.65625 1.953125q0 1.640625 0.8125 2.40625q0.8125 0.765625 2.1875 0.765625q0.734375 0 1.765625 -0.40625q1.046875 -0.421875 1.8125 -1.015625l0 -5.609375zm9.8125 7.0625l0 -21.796875l-2.5625 -0.3125l0 -1.484375l5.328125 -0.671875l0.03125 0l0.765625 0.53125l0 23.734375l2.65625 0.265625l0 1.703125l-8.75 0l0 -1.703125l2.53125 -0.265625zm10.75 0l0 -21.796875l-2.5625 -0.3125l0 -1.484375l5.328125 -0.671875l0.03125 0l0.765625 0.53125l0 23.734375l2.65625 0.265625l0 1.703125l-8.75 0l0 -1.703125l2.53125 -0.265625z" fill-rule="nonzero"></path><path fill="#e06666" d="m897.9934 518.39105l0 0c-16.455444 0 -29.795227 -13.339783 -29.795227 -29.795258l0 0c0 -7.902191 3.1390991 -15.480743 8.726807 -21.06842c5.5877075 -5.5877075 13.16626 -8.726837 21.06842 -8.726837l0 0c16.455505 0 29.795288 13.339783 29.795288 29.795258l0 0c0 16.455475 -13.339783 29.795258 -29.795288 29.795258zm13.811096 -48.298798c-9.192078 -6.8609924 -22.0271 -5.93396 -30.137817 2.1767578c-8.110779 8.110748 -9.037781 20.9458 -2.1768188 30.137878zm-27.622131 37.00708l0 0c9.192078 6.8609924 22.0271 5.9339905 30.137817 -2.1767578c8.110779 -8.110718 9.037781 -20.94577 2.1768188 -30.137878z" fill-rule="nonzero"></path><path fill="#000000" fill-opacity="0.0" d="m229.47375 672.5906l-108.755905 0" fill-rule="nonzero"></path><path stroke="#6d9eeb" stroke-width="4.0" stroke-linejoin="round" stroke-linecap="butt" d="m205.47375 672.5906l-60.755905 0" fill-rule="evenodd"></path><path fill="#6d9eeb" stroke="#6d9eeb" stroke-width="4.0" stroke-linecap="butt" d="m205.47375 679.1975l18.15239 -6.6069336l-18.15239 -6.6069336z" fill-rule="evenodd"></path><path fill="#6d9eeb" stroke="#6d9eeb" stroke-width="4.0" stroke-linecap="butt" d="m144.71785 665.98364l-18.15239 6.6069336l18.15239 6.6069336z" fill-rule="evenodd"></path><path fill="#000000" fill-opacity="0.0" d="m245.59973 642.7953l212.62991 0l0 59.590515l-212.62991 0z" fill-rule="nonzero"></path><path fill="#000000" d="m257.6466 677.31805l0.46875 1.78125q0.140625 0.25 0.546875 0.46875q0.40625 0.21875 0.953125 0.359375q0.546875 0.140625 1.125 0.140625q1.328125 0 1.890625 -0.484375q0.5625 -0.5 0.5625 -1.375q0 -0.609375 -0.390625 -1.0625q-0.375 -0.46875 -1.125 -0.875q-0.75 -0.421875 -2.03125 -0.9375q-1.875 -0.71875 -2.734375 -1.703125q-0.84375 -1.0 -0.84375 -2.5625q0 -1.0625 0.640625 -1.859375q0.640625 -0.8125 1.75 -1.25q1.109375 -0.453125 2.5 -0.453125q1.078125 0 1.890625 0.171875q0.828125 0.171875 1.671875 0.4375l0.421875 0.140625l0 2.953125l-1.5 0l-0.515625 -1.640625q-0.140625 -0.296875 -0.75 -0.515625q-0.609375 -0.234375 -1.375 -0.234375q-1.078125 0 -1.671875 0.46875q-0.578125 0.453125 -0.578125 1.1875q0 0.65625 0.34375 1.109375q0.34375 0.4375 0.859375 0.71875q0.515625 0.28125 1.4375 0.671875l0.46875 0.203125q1.328125 0.5625 2.15625 1.078125q0.84375 0.5 1.390625 1.28125q0.546875 0.78125 0.546875 1.921875q0 1.171875 -0.625 2.0625q-0.609375 0.890625 -1.78125 1.390625q-1.15625 0.484375 -2.75 0.484375q-1.1875 0 -2.5 -0.328125q-1.3125 -0.328125 -2.109375 -0.671875l0 -3.078125l1.65625 0zm11.628906 2.34375l0 -16.359375l-1.9375 -0.234375l0 -1.109375l3.96875 -0.5l0.0625 0l0.5625 0.390625l0.015625 5.4375l-0.109375 2.09375q0.796875 -0.703125 2.078125 -1.28125q1.296875 -0.59375 2.65625 -0.59375q1.5 0 2.328125 0.578125q0.84375 0.5625 1.171875 1.75q0.34375 1.1875 0.34375 3.203125l0 6.609375l1.6875 0.203125l0 1.28125l-5.890625 0l0 -1.265625l1.53125 -0.203125l0 -6.640625q0 -1.359375 -0.1875 -2.140625q-0.171875 -0.78125 -0.6875 -1.171875q-0.515625 -0.390625 -1.515625 -0.390625q-0.84375 0 -1.765625 0.34375q-0.921875 0.34375 -1.625 0.875l0 9.109375l1.65625 0.203125l0 1.28125l-5.75 0l0 -1.28125l1.40625 -0.1875zm22.28125 -7.234375q0 -1.109375 -0.234375 -1.734375q-0.21875 -0.640625 -0.78125 -0.921875q-0.5625 -0.296875 -1.59375 -0.296875q-1.984375 0 -4.171875 1.109375l-0.015625 0l-0.578125 -1.21875q0.3125 -0.28125 1.203125 -0.71875q0.90625 -0.453125 2.046875 -0.78125q1.140625 -0.34375 2.171875 -0.34375q1.71875 0 2.6875 0.46875q0.984375 0.453125 1.40625 1.484375q0.4375 1.015625 0.4375 2.75l0 7.609375l1.4375 0l0 1.15625q-1.71875 0.40625 -2.578125 0.40625q-0.5 0 -0.765625 -0.078125q-0.25 -0.078125 -0.375 -0.328125q-0.109375 -0.265625 -0.109375 -0.78125l0 -0.5625q-0.640625 0.609375 -1.671875 1.1875q-1.03125 0.5625 -2.3125 0.5625q-1.125 0 -2.046875 -0.40625q-0.90625 -0.40625 -1.453125 -1.265625q-0.546875 -0.859375 -0.546875 -2.140625q0 -1.546875 1.078125 -2.546875q1.09375 -1.015625 2.84375 -1.484375q1.765625 -0.484375 3.921875 -0.515625l0 -0.609375zm0 1.921875q-1.71875 0 -2.828125 0.40625q-1.109375 0.390625 -1.609375 1.03125q-0.484375 0.640625 -0.484375 1.46875q0 1.21875 0.609375 1.796875q0.609375 0.578125 1.640625 0.578125q0.546875 0 1.328125 -0.3125q0.78125 -0.3125 1.34375 -0.75l0 -4.21875zm5.609375 0.421875q0 -2.046875 0.828125 -3.71875q0.828125 -1.671875 2.390625 -2.640625q1.578125 -0.96875 3.6875 -0.96875q1.03125 0 2.125 0.21875l0 -4.375l-2.359375 -0.234375l0 -1.125l4.375 -0.46875l0.078125 0l0.5625 0.421875l0 17.890625l1.390625 0l0 1.21875q-0.765625 0.1875 -1.359375 0.296875q-0.59375 0.109375 -1.21875 0.109375q-0.453125 0 -0.71875 -0.09375q-0.265625 -0.078125 -0.40625 -0.34375q-0.125 -0.265625 -0.125 -0.765625l0 -0.625q-0.71875 0.78125 -1.75 1.3125q-1.015625 0.515625 -2.28125 0.515625q-1.4375 0 -2.625 -0.734375q-1.171875 -0.734375 -1.890625 -2.21875q-0.703125 -1.5 -0.703125 -3.671875zm9.03125 -5.234375q-0.171875 -0.296875 -0.84375 -0.5q-0.671875 -0.21875 -1.4375 -0.21875q-1.765625 0 -2.828125 1.40625q-1.046875 1.390625 -1.046875 4.359375q0 1.703125 0.453125 2.828125q0.453125 1.109375 1.21875 1.65625q0.765625 0.53125 1.75 0.53125q0.859375 0 1.578125 -0.375q0.71875 -0.375 1.15625 -0.875l0 -8.8125zm12.15625 -2.09375q2.03125 0 3.390625 0.90625q1.359375 0.890625 2.015625 2.46875q0.65625 1.578125 0.65625 3.609375q0 2.171875 -0.890625 3.75q-0.890625 1.578125 -2.359375 2.40625q-1.453125 0.8125 -3.109375 0.8125q-2.03125 0 -3.390625 -0.890625q-1.359375 -0.90625 -2.015625 -2.484375q-0.65625 -1.578125 -0.65625 -3.609375q0 -2.140625 0.890625 -3.71875q0.90625 -1.59375 2.359375 -2.421875q1.46875 -0.828125 3.109375 -0.828125zm3.109375 7.1875q0 -2.625 -0.78125 -4.171875q-0.78125 -1.5625 -2.46875 -1.5625q-1.625 0 -2.453125 1.328125q-0.8125 1.328125 -0.8125 3.984375q0 2.625 0.796875 4.1875q0.796875 1.546875 2.46875 1.546875q3.25 0 3.25 -5.3125zm3.7109375 -5.578125l0 -1.25l5.875 0l0 1.25l-1.84375 0.296875l1.9375 6.90625l0.65625 2.984375l0.640625 -2.984375l2.359375 -8.453125l2.484375 0l2.421875 8.4375l0.640625 2.984375l0.703125 -2.953125l1.875 -6.90625l-1.8125 -0.3125l0 -1.25l5.078125 0l0 1.25l-1.34375 0.296875l-3.671875 11.96875l-2.4375 0l-2.53125 -8.5l-0.609375 -2.828125l-0.453125 2.828125l-2.4375 8.5l-2.390625 0l-3.84375 -11.96875l-1.296875 -0.296875zm23.820312 8.265625l0.46875 1.78125q0.140625 0.25 0.546875 0.46875q0.40625 0.21875 0.953125 0.359375q0.546875 0.140625 1.125 0.140625q1.328125 0 1.890625 -0.484375q0.5625 -0.5 0.5625 -1.375q0 -0.609375 -0.390625 -1.0625q-0.375 -0.46875 -1.125 -0.875q-0.75 -0.421875 -2.03125 -0.9375q-1.875 -0.71875 -2.734375 -1.703125q-0.84375 -1.0 -0.84375 -2.5625q0 -1.0625 0.640625 -1.859375q0.640625 -0.8125 1.75 -1.25q1.109375 -0.453125 2.5 -0.453125q1.078125 0 1.890625 0.171875q0.828125 0.171875 1.671875 0.4375l0.421875 0.140625l0 2.953125l-1.5 0l-0.515625 -1.640625q-0.140625 -0.296875 -0.75 -0.515625q-0.609375 -0.234375 -1.375 -0.234375q-1.078125 0 -1.671875 0.46875q-0.578125 0.453125 -0.578125 1.1875q0 0.65625 0.34375 1.109375q0.34375 0.4375 0.859375 0.71875q0.515625 0.28125 1.4375 0.671875l0.46875 0.203125q1.328125 0.5625 2.15625 1.078125q0.84375 0.5 1.390625 1.28125q0.546875 0.78125 0.546875 1.921875q0 1.171875 -0.625 2.0625q-0.609375 0.890625 -1.78125 1.390625q-1.15625 0.484375 -2.75 0.484375q-1.1875 0 -2.5 -0.328125q-1.3125 -0.328125 -2.109375 -0.671875l0 -3.078125l1.65625 0zm16.457031 -9.875q2.03125 0 3.390625 0.90625q1.359375 0.890625 2.015625 2.46875q0.65625 1.578125 0.65625 3.609375q0 2.171875 -0.890625 3.75q-0.890625 1.578125 -2.359375 2.40625q-1.453125 0.8125 -3.109375 0.8125q-2.03125 0 -3.390625 -0.890625q-1.359375 -0.90625 -2.015625 -2.484375q-0.65625 -1.578125 -0.65625 -3.609375q0 -2.140625 0.890625 -3.71875q0.90625 -1.59375 2.359375 -2.421875q1.46875 -0.828125 3.109375 -0.828125zm3.109375 7.1875q0 -2.625 -0.78125 -4.171875q-0.78125 -1.5625 -2.46875 -1.5625q-1.625 0 -2.453125 1.328125q-0.8125 1.328125 -0.8125 3.984375q0 2.625 0.796875 4.1875q0.796875 1.546875 2.46875 1.546875q3.25 0 3.25 -5.3125zm11.5390625 -7.1875q1.6875 0 3.609375 0.71875l-0.125 3.609375l-1.625 0l-0.53125 -2.1875q-0.171875 -0.390625 -0.65625 -0.578125q-0.484375 -0.1875 -1.171875 -0.1875q-1.03125 0 -1.796875 0.578125q-0.75 0.5625 -1.171875 1.703125q-0.421875 1.125 -0.421875 2.78125q0 1.9375 0.5 3.21875q0.5 1.28125 1.359375 1.890625q0.875 0.609375 1.96875 0.609375q1.015625 0 1.875 -0.296875q0.875 -0.3125 1.484375 -0.734375l0.5 1.078125q-0.421875 0.421875 -1.125 0.828125q-0.703125 0.40625 -1.578125 0.65625q-0.875 0.265625 -1.75 0.265625q-1.984375 0 -3.359375 -0.875q-1.359375 -0.875 -2.046875 -2.40625q-0.6875 -1.53125 -0.6875 -3.484375q0 -2.0 0.765625 -3.625q0.78125 -1.640625 2.296875 -2.59375q1.53125 -0.96875 3.6875 -0.96875zm7.0507812 12.203125l0 -16.34375l-1.828125 -0.234375l0 -1.109375l3.90625 -0.5l0.03125 0l0.5625 0.390625l0 11.609375l-0.046875 1.328125l5.234375 -5.453125l-1.890625 -0.328125l0 -1.203125l5.96875 0l0 1.203125l-1.84375 0.390625l-3.40625 3.328125l4.59375 6.921875l1.40625 0.203125l0 1.28125l-5.875 0l0 -1.265625l1.40625 -0.21875l-3.3125 -5.359375l-2.296875 2.265625l0.0625 1.25l0 1.84375l1.6875 0.21875l0 1.265625l-5.890625 0l0 -1.28125l1.53125 -0.203125zm15.1640625 -2.328125l0.46875 1.78125q0.140625 0.25 0.546875 0.46875q0.40625 0.21875 0.953125 0.359375q0.546875 0.140625 1.125 0.140625q1.328125 0 1.890625 -0.484375q0.5625 -0.5 0.5625 -1.375q0 -0.609375 -0.390625 -1.0625q-0.375 -0.46875 -1.125 -0.875q-0.75 -0.421875 -2.03125 -0.9375q-1.875 -0.71875 -2.734375 -1.703125q-0.84375 -1.0 -0.84375 -2.5625q0 -1.0625 0.640625 -1.859375q0.640625 -0.8125 1.75 -1.25q1.109375 -0.453125 2.5 -0.453125q1.078125 0 1.890625 0.171875q0.828125 0.171875 1.671875 0.4375l0.421875 0.140625l0 2.953125l-1.5 0l-0.515625 -1.640625q-0.140625 -0.296875 -0.75 -0.515625q-0.609375 -0.234375 -1.375 -0.234375q-1.078125 0 -1.671875 0.46875q-0.578125 0.453125 -0.578125 1.1875q0 0.65625 0.34375 1.109375q0.34375 0.4375 0.859375 0.71875q0.515625 0.28125 1.4375 0.671875l0.46875 0.203125q1.328125 0.5625 2.15625 1.078125q0.84375 0.5 1.390625 1.28125q0.546875 0.78125 0.546875 1.921875q0 1.171875 -0.625 2.0625q-0.609375 0.890625 -1.78125 1.390625q-1.15625 0.484375 -2.75 0.484375q-1.1875 0 -2.5 -0.328125q-1.3125 -0.328125 -2.109375 -0.671875l0 -3.078125l1.65625 0z" fill-rule="nonzero"></path></g></svg>

